<svg width="119px" height="118px" viewBox="0 0 119 118" xmlns="http://www.w3.org/2000/svg">
    <g stroke="none" stroke-width="1" fill="none" fill-rule="evenodd">
        <g transform="translate(-41.000000, -84.000000)" fill="#FFDE80">
            <path d="M102.15628,193 L100.108499,193 C83.9551201,192.819293 64.5493828,190.433956 58.5024057,184.253767 C52.4554285,178.073577 50.5521967,158.605377 50.7208375,142.401956 C50.8894783,126.198534 53.2986325,106.8749 59.4781131,100.839277 C65.6575937,94.8036527 85.1356057,92.8520139 101.313076,93.0086269 C117.490547,93.1652399 136.82401,95.5867177 142.870987,101.766907 C148.917964,107.947097 150.869379,127.40325 150.700738,143.606671 C150.532097,159.810092 148.122943,179.121679 141.943462,185.16935 C136.028989,190.951984 117.888057,193 102.15628,193 Z" id="logo-2-path" transform="translate(100.710678, 143.000000) rotate(45.000000) translate(-100.710678, -143.000000) "></path>
        </g>
    </g>
</svg>
